:SAMPLES-PER-SECOND 30
:FRAME-RANGE 1-1086
:FULLY-SPECIFIED
:DEGREES
781
root  53.3895 37.9905 -27.6396 -172.498 -3.48237 178.97
RightUpLeg  -26.6859 -3.58 3.22647
RightLeg  33.9442 -9.3159 -6.95107
RightFoot  -15.2188 0.00549265 3.20789
RightToes  -5.8209e-011 0 -3.6325e-017
Spine  14.275 -1.43979 8.41498
Spine1  2.32959 -1.51779 3.48352
HEad  -11.4541 -9.99252 1.69765
LeftShoulder1  2.7207 -4.77363 -26.766
LeftArm  33.5808 -44.9915 -49.6143
LeftForeArm  -7.70934 -5.32967 -19.3305
LeftHand  0.243782 -2.04611 -3.64454
RightShoulder  14.3129 27.5205 39.7093
RightArm  -19.504 23.1547 13.6207
RightForeArm  4.16983 0.0691845 13.9607
RightHand  0.438265 2.21603 6.50715
LeftUpLeg  -31.1675 13.2469 0.200894
LeftLeg  61.2249 -0.133502 0.318629
LeftFoot  -5.21457 0.430631 -7.45636
LeftToes  5.72949e-011 5.22586e-011 2.45399e-011
782
root  53.2845 38.1509 -28.6334 -173.068 -2.71743 178.694
RightUpLeg  -23.8745 -3.51411 2.66765
RightLeg  33.0461 -8.95227 -6.48181
RightFoot  -16.4268 0.0507279 3.64783
RightToes  -5.8209e-011 0 -3.6325e-017
Spine  14.0369 -1.19612 7.98282
Spine1  1.89738 -1.36016 3.46717
HEad  -11.6369 -9.26896 1.4695
LeftShoulder1  2.69207 -4.87735 -25.99
LeftArm  29.9547 -47.0288 -48.7608
LeftForeArm  -5.76822 -4.20416 -19.4802
LeftHand  0.233723 -1.95801 -3.53702
RightShoulder  14.4416 28.691 38.4469
RightArm  -21.342 25.0671 13.3475
RightForeArm  2.71175 -0.0394714 13.642
RightHand  0.453778 2.02958 6.93019
LeftUpLeg  -32.8097 12.9201 -0.453257
LeftLeg  56.8822 -0.458297 -0.245285
LeftFoot  -5.97272 0.397989 -7.71832
LeftToes  5.72949e-011 5.22586e-011 2.45399e-011
783
root  53.1879 38.3126 -29.6355 -173.677 -2.15215 178.351
RightUpLeg  -20.9103 -3.6619 2.01567
RightLeg  31.9184 -8.5159 -5.93397
RightFoot  -17.4831 0.0964693 4.00529
RightToes  -5.8209e-011 0 -3.6325e-017
Spine  13.7637 -1.01968 7.27016
Spine1  1.4448 -1.28055 3.42986
HEad  -11.7404 -8.63914 1.30016
LeftShoulder1  2.66253 -4.97954 -25.2243
LeftArm  26.3568 -49.3349 -47.7191
LeftForeArm  -4.07667 -3.16641 -19.5668
LeftHand  0.213504 -1.8037 -3.30017
RightShoulder  14.5397 29.7823 37.2725
RightArm  -23.0116 26.7818 13.0687
RightForeArm  1.14658 0.188305 13.3267
RightHand  0.474765 1.90665 7.39169
LeftUpLeg  -33.8499 12.9563 -1.2597
LeftLeg  50.6668 -0.694886 -0.465082
LeftFoot  -6.20423 0.396828 -8.00927
LeftToes  5.72949e-011 5.22586e-011 2.45399e-011
784
root  53.1023 38.4483 -30.6374 -174.201 -1.71025 178.053
RightUpLeg  -18.0505 -3.77988 1.43004
RightLeg  30.7663 -8.26555 -5.52762
RightFoot  -18.3755 0.129299 4.12844
RightToes  -5.8209e-011 0 -3.6325e-017
Spine  13.282 -0.821843 6.41717
Spine1  1.15295 -1.18317 3.39849
HEad  -11.7718 -8.08086 1.16203
LeftShoulder1  2.62083 -5.11639 -24.1964
LeftArm  20.9755 -51.8743 -46.6535
LeftForeArm  -1.07402 -1.62563 -19.5709
LeftHand  0.228597 -1.72394 -3.59184
RightShoulder  14.4586 30.6682 35.9057
RightArm  -24.4347 28.485 13.0525
RightForeArm  -0.703181 0.562031 13.0691
RightHand  0.474986 1.6267 7.71808
LeftUpLeg  -34.3729 13.2306 -2.18367
LeftLeg  42.9387 -0.70182 -0.308227
LeftFoot  -5.98207 0.418966 -8.17726
LeftToes  5.72949e-011 5.22586e-011 2.45399e-011
785
root  53.0105 38.5588 -31.6458 -174.7 -1.37547 177.847
RightUpLeg  -15.1315 -3.83328 0.902075
RightLeg  29.4546 -8.0246 -5.11532
RightFoot  -19.1973 0.178258 4.48936
RightToes  -5.8209e-011 0 -3.6325e-017
Spine  12.7297 -0.684692 5.50424
Spine1  0.925718 -1.11822 3.38564
HEad  -11.6621 -7.53379 0.909238
LeftShoulder1  2.57465 -5.28176 -23.0406
LeftArm  15.4621 -54.3808 -45.3168
LeftForeArm  1.22086 -0.140386 -19.4823
LeftHand  0.255453 -1.57723 -4.13079
RightShoulder  14.4048 31.5937 34.6235
RightArm  -25.7511 29.9753 12.9973
RightForeArm  -2.33688 0.952972 12.8259
RightHand  0.49738 1.51031 8.23579
LeftUpLeg  -34.1855 13.6625 -3.13909
LeftLeg  33.9481 -0.582052 -0.0672524
LeftFoot  -5.18834 0.500289 -8.71889
LeftToes  5.72949e-011 5.22586e-011 2.45399e-011
786
root  52.8961 38.6293 -32.6764 -175.082 -1.03894 177.951
RightUpLeg  -12.2944 -3.78501 0.682526
RightLeg  28.0819 -7.94371 -4.80501
RightFoot  -19.9493 0.233767 4.90085
RightToes  -5.8209e-011 0 -3.6325e-017
Spine  12.0796 -0.588748 4.88309
Spine1  0.741149 -1.04771 3.38286
HEad  -11.1559 -7.021 0.8653
LeftShoulder1  2.49269 -5.3626 -21.7779
LeftArm  10.7431 -56.8922 -43.893
LeftForeArm  3.41453 1.06094 -19.3015
LeftHand  0.274137 -1.55106 -4.46237
RightShoulder  14.3518 32.4549 33.4706
RightArm  -26.996 31.3464 12.9325
RightForeArm  -3.65256 1.48819 12.6055
RightHand  0.52401 1.42408 8.8011
LeftUpLeg  -33.5546 14.747 -4.13516
LeftLeg  24.3968 -0.634194 0.0187248
LeftFoot  -4.07382 0.61192 -9.23771
LeftToes  5.72949e-011 5.22586e-011 2.45399e-011
787
root  52.7447 38.6389 -33.7625 -175.356 -0.58588 178.319
RightUpLeg  -9.55339 -3.6323 0.678091
RightLeg  26.821 -7.78824 -4.48757
RightFoot  -20.7762 0.300137 5.34139
RightToes  -5.8209e-011 0 -3.6325e-017
Spine  11.3426 -0.454815 4.46302
Spine1  0.432859 -0.964323 3.61279
HEad  -9.98662 -6.38685 0.742415
LeftShoulder1  2.40795 -5.44109 -20.5048
LeftArm  6.51675 -59.1046 -42.3373
LeftForeArm  5.9321 2.06972 -19.0465
LeftHand  0.281044 -1.56537 -4.56738
RightShoulder  14.3281 33.2186 32.5487
RightArm  -27.8598 32.6265 12.8509
RightForeArm  -4.78648 1.99903 12.5013
RightHand  0.542882 1.32758 9.26253
LeftUpLeg  -32.6854 16.2455 -4.88419
LeftLeg  15.5819 0.321662 -0.129486
LeftFoot  -2.24634 0.80637 -9.95179
LeftToes  5.72949e-011 5.22586e-011 2.45399e-011
788
root  52.5468 38.5893 -34.9318 -175.681 0.045597 178.848
RightUpLeg  -6.69979 -3.54832 0.697437
RightLeg  25.6876 -7.36175 -4.06686
RightFoot  -21.6768 0.388429 5.91675
RightToes  -5.8209e-011 0 -3.6325e-017
Spine  10.5154 -0.288466 4.24251
Spine1  0.190865 -0.851358 3.89091
HEad  -8.50786 -5.56014 0.540008
LeftShoulder1  2.30647 -5.4854 -19.1511
LeftArm  3.07021 -61.0798 -40.5995
LeftForeArm  8.02195 2.57964 -18.7947
LeftHand  0.277197 -1.59031 -4.48444
RightShoulder  14.3753 33.9607 31.8702
RightArm  -28.519 33.677 12.8718
RightForeArm  -5.62208 2.60743 12.4368
RightHand  0.539981 1.33931 9.07488
LeftUpLeg  -30.4512 10.9137 -0.486903
LeftLeg  8.82544 10.3766 -2.43622
LeftFoot  -0.405657 1.00605 -10.4642
LeftToes  5.72949e-011 5.22586e-011 2.45399e-011
789
root  52.3075 38.4829 -36.1919 -176.083 0.64185 179.465
RightUpLeg  -3.7949 -3.37913 0.694173
RightLeg  24.9477 -6.90568 -3.71683
RightFoot  -22.5337 0.516975 6.83061
RightToes  -5.8209e-011 0 -3.6325e-017
Spine  9.58763 -0.153015 4.12129
Spine1  0.124096 -0.804153 4.23802
HEad  -7.30324 -4.74153 0.468028
LeftShoulder1  2.17342 -5.43857 -17.6894
LeftArm  -0.766597 -62.9113 -38.6796
LeftForeArm  10.8111 2.67597 -18.4386
LeftHand  0.259925 -1.58793 -4.19802
RightShoulder  14.4144 34.5849 31.315
RightArm  -28.8922 34.5908 12.9757
RightForeArm  -6.23174 3.42351 12.4281
RightHand  0.54888 1.26983 9.36478
LeftUpLeg  -29.2287 9.03188 1.1219
LeftLeg  5.87268 15.8407 -3.72818
LeftFoot  -0.404743 1.06261 -11.05
LeftToes  5.72949e-011 5.22586e-011 2.45399e-011
790
root  52.0272 38.3303 -37.534 -176.719 1.20437 179.858
RightUpLeg  -0.843758 -3.19044 0.245962
RightLeg  24.9214 -6.07868 -3.29781
RightFoot  -23.3319 0.721445 8.3665
RightToes  -5.8209e-011 0 -3.6325e-017
Spine  8.86794 -0.00910976 3.64076
Spine1  0.181082 -0.797801 4.70419
HEad  -6.54675 -4.01171 0.643808
LeftShoulder1  2.04736 -5.37234 -16.3436
LeftArm  -5.2003 -64.6433 -36.2601
LeftForeArm  13.988 2.56606 -18.0054
LeftHand  0.244454 -1.60669 -3.92743
RightShoulder  14.4404 35.0671 30.8857
RightArm  -28.773 35.3584 13.1002
RightForeArm  -7.18644 4.48393 12.497
RightHand  0.55635 1.22631 9.63276
LeftUpLeg  -28.385 9.92926 0.372788
LeftLeg  6.5926 16.1503 -3.52847
LeftFoot  0.373383 1.03556 -10.0985
LeftToes  5.72949e-011 5.22586e-011 2.45399e-011
791
root  51.7068 38.1719 -38.9297 -177.552 1.85953 179.788
RightUpLeg  1.81813 -3.06006 -1.0014
RightLeg  25.9971 -4.52014 -2.62205
RightFoot  -23.732 0.9906 10.5867
RightToes  -5.8209e-011 0 -3.6325e-017
Spine  8.46091 0.184878 2.47934
Spine1  0.209721 -0.750289 5.17874
HEad  -5.6498 -3.37772 0.888274
LeftShoulder1  1.95872 -5.36176 -15.2824
LeftArm  -8.55051 -66.0546 -33.6604
LeftForeArm  16.1915 2.0185 -17.6867
LeftHand  0.224711 -1.77286 -3.4995
RightShoulder  14.4374 35.4387 30.5011
RightArm  -28.1167 35.8601 13.3558
RightForeArm  -8.17613 5.5777 12.5648
RightHand  0.56474 1.08276 9.95403
LeftUpLeg  -27.7423 11.3104 -1.77487
LeftLeg  9.10936 11.6704 -2.66899
LeftFoot  5.00633 0.381368 -2.86713
LeftToes  5.72949e-011 5.22586e-011 2.45399e-011
792
root  51.3557 37.9719 -40.2698 -178.166 2.54705 179.168
RightUpLeg  2.44246 -2.44769 -3.05253
RightLeg  30.3006 -2.12165 -1.57639
RightFoot  -23.3399 1.33777 14.1785
RightToes  -5.8209e-011 0 -3.6325e-017
Spine  8.57848 0.331736 0.872088
Spine1  -0.133638 -0.73221 5.29644
HEad  -5.05177 -2.80419 1.19265
LeftShoulder1  1.85633 -5.2063 -14.4262
LeftArm  -11.9639 -67.1817 -30.7752
LeftForeArm  17.9809 1.1719 -17.3469
LeftHand  0.200139 -1.79578 -3.08793
RightShoulder  14.6241 35.8071 30.6126
RightArm  -27.1322 36.3074 13.4272
RightForeArm  -9.29884 6.74431 12.5921
RightHand  0.56836 1.05849 10.1148
LeftUpLeg  -29.2166 15.9801 -6.21331
LeftLeg  15.0486 5.08906 0.143778
LeftFoot  6.47363 -0.37644 2.15041
LeftToes  5.72949e-011 5.22586e-011 2.45399e-011
793
root  50.9804 37.7133 -41.5227 -178.64 2.89605 178.238
RightUpLeg  0.331833 -2.07393 -5.84593
RightLeg  38.8828 1.02143 0.612077
RightFoot  -20.5374 1.45122 19.6128
RightToes  -5.8209e-011 0 -3.6325e-017
Spine  9.17957 0.558205 -0.618134
Spine1  -0.576167 -0.685628 5.32964
HEad  -5.45749 -2.77857 1.1052
LeftShoulder1  1.80411 -5.22364 -13.7223
LeftArm  -15.5834 -68.117 -27.9521
LeftForeArm  19.0706 0.131282 -16.9622
LeftHand  0.189643 -1.92691 -2.85347
RightShoulder  14.592 35.9528 30.3854
RightArm  -26.0799 36.579 13.5116
RightForeArm  -11.0137 8.329 12.3945
RightHand  0.571798 0.985798 10.2706
LeftUpLeg  -30.2636 16.2853 -8.2577
LeftLeg  21.3623 3.95667 2.04065
LeftFoot  3.92447 -0.552998 3.94721
LeftToes  5.72949e-011 5.22586e-011 2.45399e-011
794
root  50.6192 37.5602 -42.6292 -179.211 4.34527 177.406
RightUpLeg  -4.08172 -0.0396892 -8.51099
RightLeg  49.209 2.73183 3.05094
RightFoot  -12.9139 0.244995 23.9746
RightToes  -5.8209e-011 0 -3.6325e-017
Spine  9.78113 1.04668 -1.12675
Spine1  -0.11081 -0.0788832 3.68847
HEad  -6.04809 -2.63349 0.938765
LeftShoulder1  1.74622 -5.22938 -12.9772
LeftArm  -18.8913 -68.8724 -24.488
LeftForeArm  19.2917 -0.78814 -16.6949
LeftHand  0.19435 -2.14002 -2.82658
RightShoulder  14.6417 36.4952 29.9791
RightArm  -25.5038 36.8709 13.5049
RightForeArm  -12.5835 9.46165 12.1674
RightHand  0.580784 0.92657 10.589
LeftUpLeg  -29.9891 17.0015 -9.04269
LeftLeg  25.6605 4.70635 2.80898
LeftFoot  0.64692 -0.532499 5.03087
LeftToes  5.72949e-011 5.22586e-011 2.45399e-011
795
root  50.2797 37.489 -43.6905 -179.645 5.6651 176.78
RightUpLeg  -10.1181 2.26654 -10.1739
RightLeg  59.3198 2.04334 3.25269
RightFoot  -1.25674 -1.74174 19.4677
RightToes  -5.8209e-011 0 -3.6325e-017
Spine  10.7839 1.3134 -1.92915
Spine1  -0.526052 0.183909 3.11479
HEad  -5.64726 -1.85145 0.298685
LeftShoulder1  1.67086 -5.0624 -12.4359
LeftArm  -22.2272 -68.9348 -20.6675
LeftForeArm  19.6989 -1.20519 -16.4971
LeftHand  0.193088 -2.19756 -2.78072
RightShoulder  14.6893 37.2926 29.3351
RightArm  -24.9678 37.4618 13.9009
RightForeArm  -13.6645 9.92669 12.11
RightHand  0.595117 0.809177 11.0699
LeftUpLeg  -29.2445 18.0812 -9.76219
LeftLeg  28.5475 5.03146 3.32141
LeftFoot  -2.18746 -0.452737 5.81552
LeftToes  5.72949e-011 5.22586e-011 2.45399e-011
